<?xml version="1.0" standalone="no"?><!-- Generator: Gravit.io --><svg xmlns="http://www.w3.org/2000/svg" xmlns:xlink="http://www.w3.org/1999/xlink" style="isolation:isolate" viewBox="0 0 240 200" width="240" height="200"><defs><clipPath id="_clipPath_83UGJOQSCGKUcIUcc8Gn8yYclgpn5vl1"><rect width="240" height="200"/></clipPath></defs><g clip-path="url(#_clipPath_83UGJOQSCGKUcIUcc8Gn8yYclgpn5vl1)">
    <g id="horse">
        <path d=" M 130.785 77.778 C 128.358 73.751 130.222 44.545 142.048 50.553 C 153.884 56.562 153.065 67.424 153.065 67.424 C 153.065 67.424 159.965 71.015 167.101 62.334 C 169.382 54.998 162.765 24.81 161.819 23.719 C 160.883 22.619 175.336 20.983 175.336 20.983 C 175.336 20.983 162.556 13.874 156.374 14.438 C 151.466 11.674 133.885 4.911 117.977 12.238 C 102.07 19.556 90.48 28.919 85.798 61.334 C 85.48 61.316 85.18 61.298 84.862 61.28 C 87.189 63.743 89.698 66.079 92.516 68.152 C 104.024 76.678 117.723 80.296 131.304 79.496 C 131.122 78.696 130.949 78.051 130.785 77.778 Z " fill="rgb(153,173,185)"/>
        <path d=" M 72.172 187.396 C 73.745 187.887 75.408 187.006 75.899 185.433 C 79.19 174.834 105.515 90.041 108.805 79.442 C 106.915 78.851 105.051 78.142 103.224 77.351 C 101.024 84.441 90.016 119.875 70.209 183.669 C 70.472 185.824 71.127 187.069 72.172 187.396 Z " fill="rgb(153,173,185)"/>
    </g>
    <g id="JOJA">
        <path d=" M 53.778 105.016 L 53.778 149.958 L 53.778 149.958 Q 53.778 154.867 52.523 159.23 L 52.523 159.23 L 52.523 159.23 Q 51.269 163.593 48.378 166.866 L 48.378 166.866 L 48.378 166.866 Q 45.488 170.138 40.906 172.047 L 40.906 172.047 L 40.906 172.047 Q 36.325 173.956 29.78 173.956 L 29.78 173.956 L 29.78 173.956 Q 22.908 173.956 18.326 172.211 L 18.326 172.211 L 18.326 172.211 Q 13.745 170.465 10.581 167.957 L 10.581 167.957 L 15.708 157.267 L 15.708 157.267 Q 18.435 159.012 21.762 160.648 L 21.762 160.648 L 21.762 160.648 Q 25.089 162.284 28.58 162.284 L 28.58 162.284 L 28.58 162.284 Q 33.816 162.284 37.034 159.503 L 37.034 159.503 L 37.034 159.503 Q 40.252 156.721 40.252 149.194 L 40.252 149.194 L 40.252 116.143 L 17.672 116.143 L 17.672 105.016 L 53.778 105.016 Z  M 77.121 138.723 L 77.121 138.723 L 77.121 138.723 Q 77.121 143.631 77.503 147.94 L 77.503 147.94 L 77.503 147.94 Q 77.885 152.249 79.03 155.412 L 79.03 155.412 L 79.03 155.412 Q 80.176 158.576 82.248 160.43 L 82.248 160.43 L 82.248 160.43 Q 84.321 162.284 87.811 162.284 L 87.811 162.284 L 87.811 162.284 Q 91.193 162.284 93.32 160.43 L 93.32 160.43 L 93.32 160.43 Q 95.447 158.576 96.593 155.358 L 96.593 155.358 L 96.593 155.358 Q 97.738 152.14 98.12 147.886 L 98.12 147.886 L 98.12 147.886 Q 98.502 143.631 98.502 138.723 L 98.502 138.723 L 98.502 138.723 Q 98.502 133.814 98.12 129.505 L 98.12 129.505 L 98.12 129.505 Q 97.738 125.196 96.593 122.033 L 96.593 122.033 L 96.593 122.033 Q 95.447 118.87 93.375 117.015 L 93.375 117.015 L 93.375 117.015 Q 91.302 115.161 87.811 115.161 L 87.811 115.161 L 87.811 115.161 Q 84.321 115.161 82.248 117.015 L 82.248 117.015 L 82.248 117.015 Q 80.176 118.87 79.03 122.088 L 79.03 122.088 L 79.03 122.088 Q 77.885 125.306 77.503 129.56 L 77.503 129.56 L 77.503 129.56 Q 77.121 133.814 77.121 138.723 Z  M 63.486 138.723 L 63.486 138.723 L 63.486 138.723 Q 63.486 121.27 69.922 112.379 L 69.922 112.379 L 69.922 112.379 Q 76.358 103.489 87.811 103.489 L 87.811 103.489 L 87.811 103.489 Q 99.701 103.489 105.919 112.379 L 105.919 112.379 L 105.919 112.379 Q 112.137 121.27 112.137 138.723 L 112.137 138.723 L 112.137 138.723 Q 112.137 156.176 105.81 165.066 L 105.81 165.066 L 105.81 165.066 Q 99.483 173.956 87.921 173.956 L 87.921 173.956 L 87.921 173.956 Q 76.031 173.956 69.758 165.066 L 69.758 165.066 L 69.758 165.066 Q 63.486 156.176 63.486 138.723 Z  M 162.86 105.016 L 162.86 149.958 L 162.86 149.958 Q 162.86 154.867 161.605 159.23 L 161.605 159.23 L 161.605 159.23 Q 160.351 163.593 157.46 166.866 L 157.46 166.866 L 157.46 166.866 Q 154.57 170.138 149.988 172.047 L 149.988 172.047 L 149.988 172.047 Q 145.407 173.956 138.862 173.956 L 138.862 173.956 L 138.862 173.956 Q 131.99 173.956 127.408 172.211 L 127.408 172.211 L 127.408 172.211 Q 122.827 170.465 119.663 167.957 L 119.663 167.957 L 124.79 157.267 L 124.79 157.267 Q 127.517 159.012 130.844 160.648 L 130.844 160.648 L 130.844 160.648 Q 134.171 162.284 137.662 162.284 L 137.662 162.284 L 137.662 162.284 Q 142.898 162.284 146.116 159.503 L 146.116 159.503 L 146.116 159.503 Q 149.334 156.721 149.334 149.194 L 149.334 149.194 L 149.334 116.143 L 126.754 116.143 L 126.754 105.016 L 162.86 105.016 Z  M 223.182 172.538 L 208.783 172.538 L 205.62 156.939 L 187.621 156.939 L 184.567 172.538 L 170.605 172.538 L 170.605 172.538 Q 175.404 152.576 180.313 136.159 L 180.313 136.159 L 180.313 136.159 Q 185.222 119.742 189.803 105.016 L 189.803 105.016 L 204.42 105.016 L 204.42 105.016 Q 209.22 119.851 213.965 136.486 L 213.965 136.486 L 213.965 136.486 Q 218.71 153.121 223.182 172.538 L 223.182 172.538 Z  M 196.784 118.106 L 196.784 118.106 L 196.784 118.106 Q 195.694 121.924 194.766 125.36 L 194.766 125.36 L 194.766 125.36 Q 193.839 128.796 193.021 132.123 L 193.021 132.123 L 193.021 132.123 Q 192.203 135.45 191.494 138.832 L 191.494 138.832 L 191.494 138.832 Q 190.785 142.213 190.13 145.813 L 190.13 145.813 L 203.329 145.813 L 203.329 145.813 Q 202.675 142.213 202.02 138.832 L 202.02 138.832 L 202.02 138.832 Q 201.366 135.45 200.548 132.123 L 200.548 132.123 L 200.548 132.123 Q 199.73 128.796 198.802 125.36 L 198.802 125.36 L 198.802 125.36 Q 197.875 121.924 196.784 118.106 Z " fill-rule="evenodd" fill="rgb(44,63,76)"/>
    </g>
</g>
</svg>